<svg xmlns="http://www.w3.org/2000/svg" xmlns:xlink="http://www.w3.org/1999/xlink" width="14.36" height="8.183" viewBox="0 0 14.36 8.183"><defs><style>.a,.b{fill:#fff;}.b{clip-rule:evenodd;}.c{clip-path:url(#a);}.d{clip-path:url(#b);}.e{clip-path:url(#c);}.f{clip-path:url(#d);}.g{clip-path:url(#e);}</style><clipPath id="a"><path class="a" d="M1214.775-756.436l-1,1,7.18,7.18,7.18-7.18-1-1-6.179,6.178Z" transform="translate(-1213.774 755.436)"/></clipPath><clipPath id="b"><path class="a" d="M1207-739.552h26.448V-766H1207Z" transform="translate(-1207 766)"/></clipPath><clipPath id="c"><rect class="a" width="29.282" height="31.172"/></clipPath><clipPath id="d"><path class="a" d="M1213-747.554h15.113V-757H1213Z" transform="translate(-1213 757)"/></clipPath><clipPath id="e"><path class="b" d="M1207-766h26.3v26.3H1207Z" transform="translate(-1207 766)"/></clipPath></defs><g class="c" transform="translate(0 1)"><g class="d" transform="translate(-6.399 -9.034)"><g class="e" transform="translate(-0.945 -4.723)"><g class="f" transform="translate(6.612 13.224)"><path class="a" d="M1206.7-756.188l13.859,13.86,13.859-13.86-13.859-13.859Z" transform="translate(-1212.651 757.723)"/></g><g class="g" transform="translate(0.945 4.723)"><g class="f" transform="translate(5.668 8.501)"><path class="a" d="M1202-735.256h35.744V-771H1202Z" transform="translate(-1212.39 757.776)"/></g></g></g></g></g></svg>