<svg width="16" height="16" viewBox="0 0 16 16" fill="none" xmlns="http://www.w3.org/2000/svg">
<path d="M8.5625 4.4375V8.5625H7.4375V4.4375H8.5625Z" fill="white"/>
<path d="M7.4375 10.4375V11.5625H8.57V10.4375H7.4375Z" fill="white"/>
<path fill-rule="evenodd" clip-rule="evenodd" d="M0.6875 8C0.6875 3.96142 3.96142 0.6875 8 0.6875C12.0386 0.6875 15.3125 3.96142 15.3125 8C15.3125 12.0386 12.0386 15.3125 8 15.3125C3.96142 15.3125 0.6875 12.0386 0.6875 8ZM8 1.8125C4.58274 1.8125 1.8125 4.58274 1.8125 8C1.8125 11.4173 4.58274 14.1875 8 14.1875C11.4173 14.1875 14.1875 11.4173 14.1875 8C14.1875 4.58274 11.4173 1.8125 8 1.8125Z" fill="white"/>
<path d="M8.5625 4.4375V8.5625H7.4375V4.4375H8.5625Z" stroke="white"/>
<path d="M7.4375 10.4375V11.5625H8.57V10.4375H7.4375Z" stroke="white"/>
<path fill-rule="evenodd" clip-rule="evenodd" d="M0.6875 8C0.6875 3.96142 3.96142 0.6875 8 0.6875C12.0386 0.6875 15.3125 3.96142 15.3125 8C15.3125 12.0386 12.0386 15.3125 8 15.3125C3.96142 15.3125 0.6875 12.0386 0.6875 8ZM8 1.8125C4.58274 1.8125 1.8125 4.58274 1.8125 8C1.8125 11.4173 4.58274 14.1875 8 14.1875C11.4173 14.1875 14.1875 11.4173 14.1875 8C14.1875 4.58274 11.4173 1.8125 8 1.8125Z" stroke="white"/>
</svg>
