<svg width="86" height="27" viewBox="0 0 86 27" fill="none" xmlns="http://www.w3.org/2000/svg">
<path d="M0 10.9087H6.35272C7.49199 4.86332 12.7493 0 19.4522 0C27.0748 0 32.42 5.43295 32.42 13.6252C32.42 14.5011 32.3322 15.2024 32.2444 15.816H11.7407C12.7044 19.54 15.771 21.7307 19.4511 21.7307C22.6055 21.7307 24.9708 20.5037 26.8553 18.3579L30.6233 21.8185C28.1263 24.6657 24.4023 26.638 19.4511 26.638C12.7483 26.638 7.49092 21.8624 6.35165 15.817H0V10.9087ZM26.987 10.9087C26.7236 9.37543 26.0234 7.97383 25.0158 6.96626C23.702 5.65139 21.7736 4.81942 19.4522 4.81942C17.1308 4.81942 15.2463 5.60856 13.8447 7.01016C12.881 7.97383 12.0919 9.2887 11.6979 10.9098H26.987V10.9087ZM36.2308 0.175602H41.7504V21.205H51.7394V26.4624H41.8382C38.202 26.4624 36.2308 24.4911 36.2308 20.8549V0.175602ZM52.792 13.319C52.792 6.17819 58.6189 0.00107016 66.3294 0.00107016C73.1639 0.00107016 78.508 4.82049 79.6473 10.9098H86V15.817H79.6473C78.4641 21.8624 73.1189 26.638 66.3294 26.638C58.575 26.6369 52.792 20.5037 52.792 13.319ZM66.3294 21.4673C70.9293 21.4673 74.346 17.9628 74.346 13.3629C74.346 8.80687 70.8415 5.16955 66.3294 5.16955C61.7294 5.16955 58.3116 8.6741 58.3116 13.3179C58.3116 17.8311 61.8172 21.4673 66.3294 21.4673Z" fill="white"/>
</svg>
